<?xml version="1.0" encoding="UTF-8" standalone="no"?>
<!DOCTYPE svg PUBLIC "-//W3C//DTD SVG 1.1//EN" "http://www.w3.org/Graphics/SVG/1.1/DTD/svg11.dtd">
<svg xmlns="http://www.w3.org/2000/svg" version="1.1" viewBox="0.00 0.00 500.00 500.00">
<g stroke-width="2.00" fill="none" stroke-linecap="butt">
<path stroke="#197642" vector-effect="non-scaling-stroke" d="
  M 168.14 168.69
  Q 167.88 166.61 164.00 166.58
  Q 153.24 166.52 149.72 166.31"
/>
<path stroke="#0c4b30" vector-effect="non-scaling-stroke" d="
  M 141.52 224.60
  Q 140.19 225.53 139.77 226.50
  Q 139.61 226.87 139.24 226.72
  Q 139.05 226.64 139.05 226.48
  Q 139.05 225.93 138.51 225.87
  Q 135.93 225.57 133.48 226.11
  Q 131.58 226.52 129.49 226.62
  Q 127.48 226.73 125.51 227.19
  Q 125.04 227.30 125.04 226.82
  Q 125.04 226.29 124.89 225.95"
/>
<path stroke="#238e4e" vector-effect="non-scaling-stroke" d="
  M 384.84 152.11
  L 370.14 158.42
  Q 369.72 158.59 369.35 158.87
  Q 368.56 159.45 367.58 159.26"
/>
<path stroke="#238e4e" vector-effect="non-scaling-stroke" d="
  M 346.54 183.32
  Q 343.95 183.09 341.43 183.19
  Q 338.57 183.30 336.36 182.93
  Q 332.99 182.36 329.40 181.93"
/>
<path stroke="#1b7043" vector-effect="non-scaling-stroke" d="
  M 320.67 183.15
  Q 314.88 182.66 311.25 177.90"
/>
<path stroke="#115839" vector-effect="non-scaling-stroke" d="
  M 389.13 203.95
  Q 388.88 204.26 388.78 204.78
  Q 388.72 205.16 388.44 204.90
  Q 388.40 204.86 388.41 204.80
  Q 388.51 204.41 388.09 204.52
  Q 385.21 205.28 382.43 206.26
  Q 379.79 207.19 377.08 207.58
  Q 371.58 208.36 365.58 207.95
  Q 365.06 207.91 364.75 207.50
  Q 364.61 207.29 364.63 207.05
  Q 364.67 206.71 364.45 206.97
  Q 364.36 207.09 364.35 207.24
  Q 364.34 207.53 364.06 207.57
  Q 363.63 207.63 363.42 206.93"
/>
<path stroke="#56b459" vector-effect="non-scaling-stroke" d="
  M 278.04 148.41
  Q 277.61 148.44 277.24 148.63
  Q 276.79 148.85 276.30 148.86
  Q 272.16 148.95 268.23 150.05
  Q 267.26 150.32 260.50 152.69
  Q 256.36 154.13 252.15 155.90"
/>
<path stroke="#488445" vector-effect="non-scaling-stroke" d="
  M 309.28 163.86
  Q 301.98 172.31 291.63 178.87
  Q 287.72 181.35 281.65 186.57"
/>
<path stroke="#4c9a4a" vector-effect="non-scaling-stroke" d="
  M 281.65 186.57
  L 281.34 181.19"
/>
<path stroke="#4c9a4a" vector-effect="non-scaling-stroke" d="
  M 254.10 161.95
  Q 250.29 166.21 248.05 171.58"
/>
<path stroke="#6ac757" vector-effect="non-scaling-stroke" d="
  M 248.05 171.58
  Q 247.11 172.19 246.16 172.15
  Q 245.65 172.13 245.27 172.45
  C 244.47 173.12 244.28 174.01 243.65 174.64
  Q 241.72 176.56 239.09 177.63
  Q 238.78 177.76 238.62 178.04
  Q 238.40 178.42 237.99 178.56
  Q 236.27 179.10 234.48 179.89
  Q 232.85 180.61 230.93 180.96
  Q 224.25 182.15 217.65 184.65"
/>
<path stroke="#0b452e" vector-effect="non-scaling-stroke" d="
  M 281.65 186.57
  Q 274.96 191.42 268.20 196.65
  Q 263.92 199.95 260.79 204.40
  C 256.58 210.40 252.85 215.98 246.85 220.75
  Q 240.92 225.47 234.96 228.51
  Q 234.51 228.73 234.23 228.32
  L 234.08 228.09
  Q 233.96 227.91 234.12 227.76
  Q 236.62 225.52 239.19 223.94
  Q 239.68 223.64 239.98 223.14
  Q 240.31 222.59 240.61 222.01
  Q 243.73 215.84 241.71 210.99"
/>
<path stroke="#2d8840" vector-effect="non-scaling-stroke" d="
  M 241.71 210.99
  Q 245.15 200.30 245.00 185.75
  Q 244.93 179.29 248.05 171.58"
/>
<path stroke="#155932" vector-effect="non-scaling-stroke" d="
  M 260.56 259.50
  Q 259.90 252.35 261.11 245.59
  Q 261.39 244.02 262.45 241.21
  Q 263.17 239.28 263.88 236.81"
/>
<path stroke="#29723b" vector-effect="non-scaling-stroke" d="
  M 263.88 236.81
  Q 265.58 233.88 265.40 229.63
  C 265.20 225.02 260.61 222.53 256.49 224.68
  Q 243.96 231.20 238.85 244.37"
/>
<path stroke="#155932" vector-effect="non-scaling-stroke" d="
  M 238.85 244.37
  L 237.44 254.71"
/>
<path stroke="#0b452e" vector-effect="non-scaling-stroke" d="
  M 182.27 289.78
  Q 180.38 288.50 180.48 285.99
  Q 180.67 281.76 180.95 277.51
  Q 181.51 268.94 185.05 260.98"
/>
<path stroke="#29723b" vector-effect="non-scaling-stroke" d="
  M 185.05 260.98
  C 190.29 251.59 198.82 243.45 208.96 239.58
  C 220.77 235.09 230.55 228.59 237.95 218.31
  C 239.54 216.10 240.47 213.61 241.71 210.99"
/>
<path stroke="#2d8840" vector-effect="non-scaling-stroke" d="
  M 185.05 260.98
  Q 176.08 258.64 166.53 258.37"
/>
<path stroke="#155932" vector-effect="non-scaling-stroke" d="
  M 262.66 274.73
  C 261.17 275.04 260.48 274.06 259.49 273.71
  Q 258.11 273.23 256.66 272.92
  Q 256.20 272.82 256.00 272.39
  Q 255.68 271.68 254.51 271.58"
/>
<path stroke="#379c44" vector-effect="non-scaling-stroke" d="
  M 263.88 236.81
  Q 256.28 242.51 253.50 243.35
  Q 248.99 244.71 238.85 244.37"
/>
<path stroke="#29723b" vector-effect="non-scaling-stroke" d="
  M 238.95 262.42
  Q 239.31 268.80 239.05 271.50
  Q 238.80 273.96 237.46 277.66"
/>
<path stroke="#379c44" vector-effect="non-scaling-stroke" d="
  M 237.46 277.66
  Q 231.77 276.67 226.64 276.92
  Q 226.48 276.93 226.42 276.79
  Q 226.40 276.74 226.36 276.71
  Q 226.25 276.58 226.08 276.60
  Q 222.45 277.05 219.12 277.13
  Q 218.98 277.14 218.86 277.05
  Q 218.75 276.97 218.65 276.89
  Q 218.51 276.77 218.33 276.76
  L 206.63 275.58"
/>
<path stroke="#155932" vector-effect="non-scaling-stroke" d="
  M 177.61 322.19
  Q 187.24 318.99 195.61 313.82
  Q 202.48 309.58 203.26 309.13
  C 209.22 305.65 215.27 302.12 220.40 297.68
  Q 225.17 293.55 228.91 289.66
  Q 233.76 284.64 237.46 277.66"
/>
<path stroke="#488445" vector-effect="non-scaling-stroke" d="
  M 299.10 160.56
  A 3.19 3.19 0.0 0 0 295.91 157.37
  A 3.19 3.19 0.0 0 0 292.72 160.56
  A 3.19 3.19 0.0 0 0 295.91 163.75
  A 3.19 3.19 0.0 0 0 299.10 160.56"
/>
</g>
<path fill="#229051" d="
  M 168.14 168.69
  Q 167.88 166.61 164.00 166.58
  Q 153.24 166.52 149.72 166.31
  Q 157.31 155.86 165.95 147.95
  Q 170.86 143.46 177.39 138.16
  Q 179.56 136.39 181.83 135.15
  C 185.35 133.22 188.54 130.98 192.22 129.05
  C 194.79 127.71 197.34 126.14 199.93 124.95
  Q 220.49 115.44 240.29 114.34
  C 250.99 113.74 252.16 128.17 241.56 129.59
  Q 226.36 131.63 212.60 136.58
  Q 206.67 138.71 200.87 142.12
  Q 191.22 147.78 181.79 155.12
  Q 178.23 157.89 174.75 161.60
  Q 171.37 165.20 168.14 168.69
  Z"
/>
<path fill="#2da557" d="
  M 384.84 152.11
  L 370.14 158.42
  Q 369.72 158.59 369.35 158.87
  Q 368.56 159.45 367.58 159.26
  C 363.98 155.88 361.71 158.64 359.81 161.86
  Q 353.41 172.70 346.54 183.32
  Q 343.95 183.09 341.43 183.19
  Q 338.57 183.30 336.36 182.93
  Q 332.99 182.36 329.40 181.93
  Q 331.04 177.29 334.66 170.82
  C 337.49 165.76 329.69 162.14 327.02 167.20
  Q 322.66 175.46 320.67 183.15
  Q 314.88 182.66 311.25 177.90
  C 314.92 172.56 317.40 165.75 315.92 159.37
  Q 315.80 158.89 316.21 158.59
  C 318.15 157.19 320.32 156.93 322.45 156.02
  Q 329.63 152.96 331.78 152.27
  Q 345.79 147.76 359.87 142.22
  C 364.09 140.57 368.02 138.21 372.16 136.33
  C 377.04 134.11 380.92 131.16 385.08 128.00
  Q 385.64 127.58 385.56 128.28
  Q 384.24 140.36 384.84 152.11
  Z"
/>
<path fill="#229051" d="
  M 278.04 148.41
  Q 277.61 148.44 277.24 148.63
  Q 276.79 148.85 276.30 148.86
  Q 272.16 148.95 268.23 150.05
  Q 267.26 150.32 260.50 152.69
  Q 256.36 154.13 252.15 155.90
  Q 248.52 156.63 245.17 158.87
  Q 244.56 159.28 244.77 158.58
  Q 247.97 147.94 256.22 143.76
  Q 261.40 141.14 266.31 141.82
  C 270.36 142.39 275.99 144.61 278.04 148.41
  Z"
/>
<path fill="#89d861" d="
  M 278.04 148.41
  L 278.31 148.77
  Q 278.62 149.18 279.15 149.15
  C 286.18 148.73 296.46 148.75 302.61 152.65
  Q 308.49 156.38 309.28 163.86
  Q 301.98 172.31 291.63 178.87
  Q 287.72 181.35 281.65 186.57
  L 281.34 181.19
  C 282.84 179.10 284.61 177.09 285.45 174.71
  C 288.29 166.68 285.36 158.35 277.81 153.95
  Q 273.63 151.51 268.29 151.87
  Q 258.92 152.49 254.10 161.95
  Q 250.29 166.21 248.05 171.58
  Q 247.11 172.19 246.16 172.15
  Q 245.65 172.13 245.27 172.45
  C 244.47 173.12 244.28 174.01 243.65 174.64
  Q 241.72 176.56 239.09 177.63
  Q 238.78 177.76 238.62 178.04
  Q 238.40 178.42 237.99 178.56
  Q 236.27 179.10 234.48 179.89
  Q 232.85 180.61 230.93 180.96
  Q 224.25 182.15 217.65 184.65
  Q 218.46 181.54 220.64 179.64
  Q 235.64 166.52 252.15 155.90
  Q 256.36 154.13 260.50 152.69
  Q 267.26 150.32 268.23 150.05
  Q 272.16 148.95 276.30 148.86
  Q 276.79 148.85 277.24 148.63
  Q 277.61 148.44 278.04 148.41
  Z
  M 299.10 160.56
  A 3.19 3.19 0.0 0 0 295.91 157.37
  A 3.19 3.19 0.0 0 0 292.72 160.56
  A 3.19 3.19 0.0 0 0 295.91 163.75
  A 3.19 3.19 0.0 0 0 299.10 160.56
  Z"
/>
<path fill="#187644" d="
  M 384.84 152.11
  Q 386.52 168.50 388.70 184.50
  Q 389.63 191.28 389.13 203.95
  Q 388.88 204.26 388.78 204.78
  Q 388.72 205.16 388.44 204.90
  Q 388.40 204.86 388.41 204.80
  Q 388.51 204.41 388.09 204.52
  Q 385.21 205.28 382.43 206.26
  Q 379.79 207.19 377.08 207.58
  Q 371.58 208.36 365.58 207.95
  Q 365.06 207.91 364.75 207.50
  Q 364.61 207.29 364.63 207.05
  Q 364.67 206.71 364.45 206.97
  Q 364.36 207.09 364.35 207.24
  Q 364.34 207.53 364.06 207.57
  Q 363.63 207.63 363.42 206.93
  Q 369.01 202.95 373.08 199.33
  C 377.40 195.48 371.39 189.49 367.12 193.45
  C 365.70 194.76 364.47 196.46 362.79 197.39
  C 356.95 200.59 351.27 203.97 344.48 204.69
  A 0.68 0.68 0.0 0 1 343.80 203.71
  C 345.49 200.35 347.89 197.49 349.75 194.32
  Q 355.95 183.75 362.06 174.13
  Q 363.05 172.57 364.79 169.23
  C 366.25 166.42 369.96 162.50 367.58 159.26
  Q 368.56 159.45 369.35 158.87
  Q 369.72 158.59 370.14 158.42
  L 384.84 152.11
  Z"
/>
<circle fill="#072f29" cx="295.91" cy="160.56" r="3.19"/>
<path fill="#072f29" d="
  M 270.8161 178.9745
  A 10.57 10.42 85.3 0 1 259.5650 169.2938
  A 10.57 10.42 85.3 0 1 269.0839 157.9055
  A 10.57 10.42 85.3 0 1 280.3350 167.5862
  A 10.57 10.42 85.3 0 1 270.8161 178.9745
  Z
  M 275.1565 164.0522
  A 2.96 2.69 31.4 0 0 274.0315 160.2139
  A 2.96 2.69 31.4 0 0 270.1035 160.9678
  A 2.96 2.69 31.4 0 0 271.2285 164.8061
  A 2.96 2.69 31.4 0 0 275.1565 164.0522
  Z"
/>
<path fill="#0f5b32" d="
  M 254.10 161.95
  Q 253.92 163.47 253.56 165.00
  C 252.11 171.19 253.77 176.72 258.47 181.32
  Q 263.18 185.92 269.26 186.07
  Q 276.27 186.26 281.34 181.19
  L 281.65 186.57
  Q 274.96 191.42 268.20 196.65
  Q 263.92 199.95 260.79 204.40
  C 256.58 210.40 252.85 215.98 246.85 220.75
  Q 240.92 225.47 234.96 228.51
  Q 234.51 228.73 234.23 228.32
  L 234.08 228.09
  Q 233.96 227.91 234.12 227.76
  Q 236.62 225.52 239.19 223.94
  Q 239.68 223.64 239.98 223.14
  Q 240.31 222.59 240.61 222.01
  Q 243.73 215.84 241.71 210.99
  Q 245.15 200.30 245.00 185.75
  Q 244.93 179.29 248.05 171.58
  Q 250.29 166.21 254.10 161.95
  Z"
/>
<path fill="#072f29" d="
  M 309.28 163.86
  Q 307.06 174.14 297.90 181.65
  Q 293.06 185.62 289.78 188.21
  Q 284.67 192.23 281.94 195.07
  Q 272.81 204.58 271.73 219.41
  C 271.27 225.69 270.65 231.48 268.71 237.69
  Q 266.76 243.89 264.20 250.23
  Q 262.47 254.53 260.56 259.50
  Q 259.90 252.35 261.11 245.59
  Q 261.39 244.02 262.45 241.21
  Q 263.17 239.28 263.88 236.81
  Q 265.58 233.88 265.40 229.63
  C 265.20 225.02 260.61 222.53 256.49 224.68
  Q 243.96 231.20 238.85 244.37
  L 237.44 254.71
  Q 227.58 254.22 220.49 257.75
  Q 217.31 259.32 215.34 260.26
  C 205.07 265.12 197.61 273.31 189.85 280.99
  C 187.05 283.77 184.72 286.74 182.27 289.78
  Q 180.38 288.50 180.48 285.99
  Q 180.67 281.76 180.95 277.51
  Q 181.51 268.94 185.05 260.98
  C 190.29 251.59 198.82 243.45 208.96 239.58
  C 220.77 235.09 230.55 228.59 237.95 218.31
  C 239.54 216.10 240.47 213.61 241.71 210.99
  Q 243.73 215.84 240.61 222.01
  Q 240.31 222.59 239.98 223.14
  Q 239.68 223.64 239.19 223.94
  Q 236.62 225.52 234.12 227.76
  Q 233.96 227.91 234.08 228.09
  L 234.23 228.32
  Q 234.51 228.73 234.96 228.51
  Q 240.92 225.47 246.85 220.75
  C 252.85 215.98 256.58 210.40 260.79 204.40
  Q 263.92 199.95 268.20 196.65
  Q 274.96 191.42 281.65 186.57
  Q 287.72 181.35 291.63 178.87
  Q 301.98 172.31 309.28 163.86
  Z"
/>
<path fill="#0f5b32" d="
  M 149.72 166.31
  Q 153.24 166.52 164.00 166.58
  Q 167.88 166.61 168.14 168.69
  Q 164.27 173.78 160.37 178.37
  C 159.22 179.71 158.08 181.58 157.26 183.18
  Q 154.41 188.74 151.53 194.13
  Q 148.69 199.46 146.79 204.96
  Q 143.48 214.54 141.52 224.60
  Q 140.19 225.53 139.77 226.50
  Q 139.61 226.87 139.24 226.72
  Q 139.05 226.64 139.05 226.48
  Q 139.05 225.93 138.51 225.87
  Q 135.93 225.57 133.48 226.11
  Q 131.58 226.52 129.49 226.62
  Q 127.48 226.73 125.51 227.19
  Q 125.04 227.30 125.04 226.82
  Q 125.04 226.29 124.89 225.95
  Q 127.58 208.69 131.91 198.71
  Q 133.68 194.63 134.71 192.09
  Q 136.63 187.33 137.56 185.52
  Q 142.79 175.33 149.72 166.31
  Z"
/>
<path fill="#4bb54d" d="
  M 248.05 171.58
  Q 244.93 179.29 245.00 185.75
  Q 245.15 200.30 241.71 210.99
  C 240.47 213.61 239.54 216.10 237.95 218.31
  C 230.55 228.59 220.77 235.09 208.96 239.58
  C 198.82 243.45 190.29 251.59 185.05 260.98
  Q 176.08 258.64 166.53 258.37
  Q 168.16 247.15 171.08 240.54
  Q 174.68 232.36 178.86 223.60
  C 180.26 220.66 182.71 218.29 184.63 215.66
  Q 189.70 208.69 196.01 202.05
  C 197.12 200.87 197.91 199.47 199.16 198.41
  Q 203.59 194.64 208.03 190.67
  A 1.15 1.15 0.0 0 1 209.92 191.31
  C 210.85 196.00 212.98 201.20 218.46 201.28
  C 222.57 201.33 223.39 196.15 220.30 193.98
  Q 219.13 193.15 218.36 191.94
  Q 216.04 188.26 217.65 184.65
  Q 224.25 182.15 230.93 180.96
  Q 232.85 180.61 234.48 179.89
  Q 236.27 179.10 237.99 178.56
  Q 238.40 178.42 238.62 178.04
  Q 238.78 177.76 239.09 177.63
  Q 241.72 176.56 243.65 174.64
  C 244.28 174.01 244.47 173.12 245.27 172.45
  Q 245.65 172.13 246.16 172.15
  Q 247.11 172.19 248.05 171.58
  Z"
/>
<path fill="#093a2e" d="
  M 311.25 177.90
  Q 314.88 182.66 320.67 183.15
  Q 316.04 201.57 323.06 220.11
  Q 323.23 220.57 323.09 221.05
  Q 322.62 222.62 322.07 223.54
  Q 318.64 229.32 315.05 235.13
  C 312.55 239.17 309.51 242.88 307.53 247.23
  A 0.42 0.42 0.0 0 1 306.80 247.28
  Q 304.53 243.76 303.33 239.56
  Q 299.43 225.92 302.51 212.64
  Q 303.49 208.45 299.37 207.04
  Q 299.25 207.00 299.13 207.01
  Q 295.05 207.35 294.27 211.10
  Q 289.27 235.19 301.67 255.68
  A 0.91 0.89 -46.7 0 1 301.69 256.58
  C 300.35 259.04 298.49 260.92 297.11 263.26
  Q 292.20 271.62 286.90 280.07
  Q 286.61 280.54 286.19 280.17
  Q 284.13 278.37 282.71 276.01
  Q 279.44 270.57 277.00 265.23
  C 274.02 258.72 272.11 249.99 274.64 243.08
  Q 277.91 234.17 278.66 223.59
  C 279.03 218.24 280.24 211.92 282.09 207.29
  C 283.85 202.87 287.02 199.53 291.24 196.38
  Q 296.36 192.55 301.40 188.65
  Q 305.72 185.31 311.25 177.90
  Z"
/>
<path fill="#187644" d="
  M 329.40 181.93
  Q 332.99 182.36 336.36 182.93
  Q 338.57 183.30 341.43 183.19
  Q 343.95 183.09 346.54 183.32
  C 344.69 186.16 343.38 189.58 341.72 192.17
  Q 335.73 201.53 329.86 210.68
  A 0.55 0.55 0.0 0 1 328.87 210.51
  Q 325.37 196.10 329.40 181.93
  Z"
/>
<path fill="#093a2e" d="
  M 389.13 203.95
  Q 388.83 212.99 387.70 218.00
  C 386.39 223.82 385.59 229.91 383.62 235.24
  Q 379.78 245.66 374.00 255.36
  C 371.84 258.99 368.95 262.01 366.37 265.33
  Q 363.50 269.01 360.02 272.14
  C 356.25 275.51 352.10 279.05 347.53 281.30
  C 343.63 283.22 340.03 285.45 335.75 287.02
  Q 314.16 294.97 291.45 288.82
  A 0.22 0.22 0.0 0 1 291.32 288.49
  Q 295.97 281.05 300.87 273.46
  C 302.09 271.58 302.86 269.49 303.93 267.53
  Q 304.19 267.05 304.70 267.23
  C 317.19 271.60 329.85 272.39 342.54 268.55
  C 345.79 267.57 351.80 264.69 348.53 260.56
  C 347.15 258.81 344.92 258.52 342.92 259.39
  Q 330.99 264.54 318.06 261.89
  Q 313.71 261.00 309.63 260.26
  Q 309.03 260.16 309.35 259.64
  L 318.84 243.97
  Q 319.13 243.50 319.68 243.54
  Q 325.03 243.98 330.28 244.25
  Q 346.20 245.08 361.22 238.14
  Q 364.30 236.72 367.10 234.23
  C 372.03 229.86 365.82 223.35 361.61 227.82
  C 355.67 234.13 342.16 236.54 333.60 236.52
  Q 328.96 236.51 324.52 236.15
  A 0.46 0.46 0.0 0 1 324.17 235.45
  L 337.49 214.04
  Q 337.78 213.58 338.45 213.57
  Q 351.86 213.40 363.42 206.93
  Q 363.63 207.63 364.06 207.57
  Q 364.34 207.53 364.35 207.24
  Q 364.36 207.09 364.45 206.97
  Q 364.67 206.71 364.63 207.05
  Q 364.61 207.29 364.75 207.50
  Q 365.06 207.91 365.58 207.95
  Q 371.58 208.36 377.08 207.58
  Q 379.79 207.19 382.43 206.26
  Q 385.21 205.28 388.09 204.52
  Q 388.51 204.41 388.41 204.80
  Q 388.40 204.86 388.44 204.90
  Q 388.72 205.16 388.78 204.78
  Q 388.88 204.26 389.13 203.95
  Z"
/>
<path fill="#4bb54d" d="
  M 263.88 236.81
  Q 256.28 242.51 253.50 243.35
  Q 248.99 244.71 238.85 244.37
  Q 243.96 231.20 256.49 224.68
  C 260.61 222.53 265.20 225.02 265.40 229.63
  Q 265.58 233.88 263.88 236.81
  Z"
/>
<path fill="#093a2e" d="
  M 141.52 224.60
  Q 138.39 243.96 141.54 263.20
  Q 143.26 273.77 146.55 282.47
  Q 154.22 302.78 166.04 317.58
  C 170.67 323.38 166.00 330.14 159.28 330.28
  C 155.76 330.36 153.59 326.93 151.62 324.41
  Q 144.45 315.26 138.77 305.28
  Q 136.63 301.51 134.75 296.57
  Q 133.12 292.27 131.39 287.68
  Q 120.18 257.85 124.89 225.95
  Q 125.04 226.29 125.04 226.82
  Q 125.04 227.30 125.51 227.19
  Q 127.48 226.73 129.49 226.62
  Q 131.58 226.52 133.48 226.11
  Q 135.93 225.57 138.51 225.87
  Q 139.05 225.93 139.05 226.48
  Q 139.05 226.64 139.24 226.72
  Q 139.61 226.87 139.77 226.50
  Q 140.19 225.53 141.52 224.60
  Z"
/>
<path fill="#22833a" d="
  M 263.88 236.81
  Q 263.17 239.28 262.45 241.21
  Q 261.39 244.02 261.11 245.59
  Q 259.90 252.35 260.56 259.50
  Q 260.16 266.79 262.66 274.73
  C 261.17 275.04 260.48 274.06 259.49 273.71
  Q 258.11 273.23 256.66 272.92
  Q 256.20 272.82 256.00 272.39
  Q 255.68 271.68 254.51 271.58
  Q 253.22 265.00 250.30 261.72
  Q 245.52 256.34 237.44 254.71
  L 238.85 244.37
  Q 248.99 244.71 253.50 243.35
  Q 256.28 242.51 263.88 236.81
  Z"
/>
<path fill="#0f5b32" d="
  M 185.05 260.98
  Q 181.51 268.94 180.95 277.51
  Q 180.67 281.76 180.48 285.99
  Q 180.38 288.50 182.27 289.78
  C 180.83 291.79 179.18 293.63 178.03 295.79
  Q 175.75 300.10 172.80 304.51
  Q 172.51 304.94 172.25 304.50
  Q 170.23 301.11 168.93 296.51
  Q 163.55 277.44 166.53 258.37
  Q 176.08 258.64 185.05 260.98
  Z"
/>
<path fill="#4bb54d" d="
  M 238.95 262.42
  Q 239.31 268.80 239.05 271.50
  Q 238.80 273.96 237.46 277.66
  Q 231.77 276.67 226.64 276.92
  Q 226.48 276.93 226.42 276.79
  Q 226.40 276.74 226.36 276.71
  Q 226.25 276.58 226.08 276.60
  Q 222.45 277.05 219.12 277.13
  Q 218.98 277.14 218.86 277.05
  Q 218.75 276.97 218.65 276.89
  Q 218.51 276.77 218.33 276.76
  L 206.63 275.58
  Q 213.29 270.04 219.86 266.08
  C 225.37 262.77 232.68 260.61 238.95 262.42
  Z"
/>
<path fill="#072f29" d="
  M 238.95 262.42
  C 248.47 267.68 248.89 276.93 243.94 285.68
  Q 239.93 292.78 235.90 296.34
  Q 235.31 296.86 236.08 297.02
  Q 244.53 298.82 252.08 303.87
  C 255.45 306.13 256.34 309.72 258.24 312.98
  C 260.27 316.46 259.37 320.93 255.18 322.06
  C 249.93 323.47 246.72 318.38 248.64 313.83
  Q 248.83 313.39 248.59 312.99
  Q 247.08 310.43 243.93 308.38
  Q 237.12 303.94 229.91 306.93
  Q 229.29 307.19 229.91 307.45
  C 235.84 309.99 240.91 313.95 242.65 320.36
  C 243.23 322.47 244.71 323.36 245.34 325.22
  Q 247.01 330.22 242.01 332.53
  C 237.29 334.70 234.50 328.86 235.48 325.07
  C 235.85 323.63 234.60 322.96 233.78 322.10
  C 224.04 311.87 212.74 314.69 201.16 320.13
  C 196.90 322.12 192.51 323.90 188.02 325.37
  C 184.87 326.41 180.20 326.04 178.28 323.05
  Q 177.91 322.47 177.61 322.19
  Q 187.24 318.99 195.61 313.82
  Q 202.48 309.58 203.26 309.13
  C 209.22 305.65 215.27 302.12 220.40 297.68
  Q 225.17 293.55 228.91 289.66
  Q 233.76 284.64 237.46 277.66
  Q 238.80 273.96 239.05 271.50
  Q 239.31 268.80 238.95 262.42
  Z"
/>
<path fill="#072f29" d="
  M 254.51 271.58
  Q 255.68 271.68 256.00 272.39
  Q 256.20 272.82 256.66 272.92
  Q 258.11 273.23 259.49 273.71
  C 260.48 274.06 261.17 275.04 262.66 274.73
  Q 263.16 277.45 263.93 280.27
  C 265.24 285.13 269.31 286.00 273.63 286.57
  C 278.81 287.25 284.35 291.13 286.33 295.23
  Q 288.20 299.10 290.09 303.00
  Q 290.93 304.74 289.43 307.26
  Q 287.71 310.16 283.97 309.93
  C 280.22 309.70 279.06 304.69 280.13 301.80
  A 2.09 2.08 37.5 0 0 279.87 299.87
  Q 274.74 292.62 265.86 293.99
  Q 265.20 294.09 265.68 294.55
  C 268.12 296.88 272.04 301.26 272.83 304.71
  C 273.20 306.34 273.40 307.75 274.35 309.19
  C 280.45 318.45 265.83 322.96 264.84 314.49
  C 264.55 312.00 265.77 309.75 264.56 307.44
  Q 259.20 297.22 248.27 293.87
  Q 247.75 293.71 248.01 293.23
  Q 248.94 291.53 249.99 290.03
  Q 255.93 281.45 254.51 271.58
  Z"
/>
<path fill="#22833a" d="
  M 206.63 275.58
  L 218.33 276.76
  Q 218.51 276.77 218.65 276.89
  Q 218.75 276.97 218.86 277.05
  Q 218.98 277.14 219.12 277.13
  Q 222.45 277.05 226.08 276.60
  Q 226.25 276.58 226.36 276.71
  Q 226.40 276.74 226.42 276.79
  Q 226.48 276.93 226.64 276.92
  Q 231.77 276.67 237.46 277.66
  Q 233.76 284.64 228.91 289.66
  Q 225.17 293.55 220.40 297.68
  C 215.27 302.12 209.22 305.65 203.26 309.13
  Q 202.48 309.58 195.61 313.82
  Q 187.24 318.99 177.61 322.19
  Q 176.10 316.76 178.00 311.50
  Q 179.28 307.95 181.90 303.94
  Q 188.55 293.75 196.64 284.67
  Q 198.66 282.42 201.52 280.00
  Q 204.29 277.66 206.63 275.58
  Z"
/>
<path fill="#072f29" d="
  M 209.44 362.38
  Q 207.39 361.66 205.36 360.75
  A 0.43 0.43 0.0 0 1 205.24 360.04
  Q 211.77 354.07 219.06 349.03
  A 1.06 1.05 36.1 0 1 219.97 348.89
  Q 234.30 353.31 249.39 354.43
  Q 274.43 356.29 298.10 346.53
  Q 302.92 344.54 307.75 342.53
  Q 310.57 341.36 316.21 337.71
  C 323.68 332.86 330.70 326.74 337.07 320.57
  Q 340.33 317.41 343.03 313.29
  C 346.21 308.44 349.84 303.86 353.12 299.17
  Q 355.76 295.38 358.32 294.43
  C 365.20 291.88 371.43 299.39 367.87 305.59
  C 363.80 312.67 359.89 319.09 354.41 325.43
  Q 348.11 332.73 341.06 339.70
  Q 339.81 340.93 338.42 341.94
  Q 329.98 348.07 321.84 353.39
  Q 316.11 357.13 306.96 361.14
  Q 300.35 364.04 293.88 365.56
  C 287.73 367.00 281.64 368.86 275.38 369.66
  Q 242.18 373.91 209.44 362.38
  Z"
/>
<path fill="#072f29" d="
  M 155.76 391.73
  Q 151.48 390.09 148.42 385.52
  C 144.51 379.66 146.88 371.31 152.69 367.62
  C 154.94 366.19 156.50 363.99 158.42 362.17
  Q 173.36 348.02 177.38 344.88
  Q 191.75 333.66 197.88 329.88
  Q 206.23 324.72 215.24 322.97
  Q 226.21 320.85 229.12 331.80
  Q 229.31 332.52 228.67 332.92
  C 224.83 335.30 221.00 337.60 217.50 340.47
  C 214.91 342.59 211.90 343.94 209.38 346.12
  C 204.54 350.31 199.83 354.48 195.79 359.38
  Q 193.71 361.92 191.12 364.26
  C 187.46 367.56 184.42 371.38 181.24 375.07
  Q 178.60 378.12 176.48 381.27
  C 172.02 387.92 164.18 394.93 155.76 391.73
  Z"
/>
</svg>
